<?xml version="1.0" encoding="UTF-8" standalone="no"?>
<!DOCTYPE svg PUBLIC "-//W3C//DTD SVG 1.1//EN"
 "http://www.w3.org/Graphics/SVG/1.1/DTD/svg11.dtd">
<!-- Generated by graphviz version 5.0.0 (20220707.1540)
 -->
<!-- Title: UmlClassDiagram Pages: 1 -->
<svg width="1714pt" height="92pt"
 viewBox="0.00 0.00 1714.06 92.20" xmlns="http://www.w3.org/2000/svg" xmlns:xlink="http://www.w3.org/1999/xlink">
<g id="graph0" class="graph" transform="scale(1 1) rotate(0) translate(4 88.2)">
<title>UmlClassDiagram</title>
<polygon fill="white" stroke="transparent" points="-4,4 -4,-88.2 1710.06,-88.2 1710.06,4 -4,4"/>
<!-- 0 -->
<g id="node1" class="node">
<title>0</title>
<polygon fill="#f2f2f2" stroke="black" points="0,-0.5 0,-83.7 418.06,-83.7 418.06,-0.5 0,-0.5"/>
<text text-anchor="middle" x="209.03" y="-67.1" font-family="Times,serif" font-size="14.00">Compare</text>
<text text-anchor="middle" x="209.03" y="-50.3" font-family="Times,serif" font-size="14.00">src/Compare.sol</text>
<polyline fill="none" stroke="black" points="0,-42.1 418.06,-42.1 "/>
<text text-anchor="start" x="8" y="-25.5" font-family="Times,serif" font-size="14.00">External:</text>
<text text-anchor="start" x="8" y="-8.7" font-family="Times,serif" font-size="14.00"> &#160;&#160;&#160;solution(numerator: uint256, denominator: uint256): (result: uint256)</text>
</g>
<!-- 1 -->
<g id="node2" class="node">
<title>1</title>
<polygon fill="#f2f2f2" stroke="black" points="436,-0.5 436,-83.7 854.06,-83.7 854.06,-0.5 436,-0.5"/>
<text text-anchor="middle" x="645.03" y="-67.1" font-family="Times,serif" font-size="14.00">CompareAssembly</text>
<text text-anchor="middle" x="645.03" y="-50.3" font-family="Times,serif" font-size="14.00">src/CompareAssembly.sol</text>
<polyline fill="none" stroke="black" points="436,-42.1 854.06,-42.1 "/>
<text text-anchor="start" x="444" y="-25.5" font-family="Times,serif" font-size="14.00">External:</text>
<text text-anchor="start" x="444" y="-8.7" font-family="Times,serif" font-size="14.00"> &#160;&#160;&#160;solution(numerator: uint256, denominator: uint256): (result: uint256)</text>
</g>
<!-- 2 -->
<g id="node3" class="node">
<title>2</title>
<polygon fill="#f2f2f2" stroke="black" points="872.5,-0.5 872.5,-83.7 1269.56,-83.7 1269.56,-0.5 872.5,-0.5"/>
<text text-anchor="middle" x="1071.03" y="-67.1" font-family="Times,serif" font-size="14.00">CompareMinus</text>
<text text-anchor="middle" x="1071.03" y="-50.3" font-family="Times,serif" font-size="14.00">src/CompareMinus.sol</text>
<polyline fill="none" stroke="black" points="872.5,-42.1 1269.56,-42.1 "/>
<text text-anchor="start" x="880.5" y="-25.5" font-family="Times,serif" font-size="14.00">External:</text>
<text text-anchor="start" x="880.5" y="-8.7" font-family="Times,serif" font-size="14.00"> &#160;&#160;&#160;solution(numerator: int256, denominator: int256): (result: int256)</text>
</g>
<!-- 3 -->
<g id="node4" class="node">
<title>3</title>
<polygon fill="#f2f2f2" stroke="black" points="1288,-0.5 1288,-83.7 1706.06,-83.7 1706.06,-0.5 1288,-0.5"/>
<text text-anchor="middle" x="1497.03" y="-67.1" font-family="Times,serif" font-size="14.00">CompareUncheck</text>
<text text-anchor="middle" x="1497.03" y="-50.3" font-family="Times,serif" font-size="14.00">src/CompareUncheck.sol</text>
<polyline fill="none" stroke="black" points="1288,-42.1 1706.06,-42.1 "/>
<text text-anchor="start" x="1296" y="-25.5" font-family="Times,serif" font-size="14.00">External:</text>
<text text-anchor="start" x="1296" y="-8.7" font-family="Times,serif" font-size="14.00"> &#160;&#160;&#160;solution(numerator: uint256, denominator: uint256): (result: uint256)</text>
</g>
</g>
</svg>
